# xmcd
#
# Track frame offsets:
#	150
#	15299
#	29995
#	52964
#	70978
#	92055
#	111394
#	126319
#	137478
#	161640
#	180337
#
# Disc length: 2660 seconds
#
# Revision: 1
# Processed by: cddbd v1.5.2PL0 Copyright (c) Steve Scherf et al.
# Submitted via: audiograbber 1.83.01
#
DISCID=930a620b
DTITLE=Cdpool - Street July 09 CD2
DYEAR=2009
DGENRE=R&B
TTITLE0=Esmee Denters - Outta Here
TTITLE1=Sharam Ft Kid Cudi - She Came Along (UK Radio Edit)
TTITLE2=MSTRKFT Ft John Legend - Heartbreaker (Major Not£$ U K Funky Remix)
TTITLE3=SMI Ft Steelo Ezekell - Bounce (Radio Edit)
TTITLE4=Lady Chann - Eye 2 Fast
TTITLE5=Tarrus Riley and Konshens - Good Girl Gone Bad
TTITLE6=MED - 100 Dolla Billz (Clean)
TTITLE7=Anti-Pop Consortium - Apparently
TTITLE8=Notes To Self - Days Like These
TTITLE9=Tah Mac Ft Mutya Buena - Give Back
TTITLE10=Maxwell - Pretty Wings
EXTD=
EXTT0=
EXTT1=
EXTT2=
EXTT3=
EXTT4=
EXTT5=
EXTT6=
EXTT7=
EXTT8=
EXTT9=
EXTT10=
PLAYORDER=
